<svg height="16" width="16" xmlns="http://www.w3.org/2000/svg" xmlns:xlink="http://www.w3.org/1999/xlink"><filter id="a" height="100%" width="100%" x="0%" y="0%"><feColorMatrix in="SourceGraphic" values="0 0 0 0 1 0 0 0 0 1 0 0 0 0 1 0 0 0 1 0"/></filter><mask id="e"><g filter="url(#a)"><path fill-opacity=".716" d="M0 0h16v16H0z"/></g></mask><linearGradient id="b" gradientUnits="userSpaceOnUse"><stop offset="0" stop-color="#99c1f1"/><stop offset="1" stop-color="#3584e4" stop-opacity="0"/></linearGradient><linearGradient id="f" gradientTransform="matrix(0 .8025 .8025 0 -165.54 102.798)" x1="-58.316" x2="34.192" xlink:href="#b" y1="296" y2="296"/><clipPath id="d"><path d="M0 0h192v152H0z"/></clipPath><mask id="h"><g filter="url(#a)"><path fill-opacity=".664" d="M0 0h16v16H0z"/></g></mask><linearGradient id="c" gradientUnits="userSpaceOnUse"><stop offset="0" stop-color="#fff"/><stop offset="1" stop-color="#fff" stop-opacity="0"/></linearGradient><linearGradient id="i" gradientTransform="matrix(.66 0 0 -.66 -139.2 91.88)" x1="320" x2="320" xlink:href="#c" y1="93" y2="13"/><clipPath id="g"><path d="M0 0h192v152H0z"/></clipPath><mask id="k"><g filter="url(#a)"><path fill-opacity=".716" d="M0 0h16v16H0z"/></g></mask><linearGradient id="l" gradientTransform="matrix(0 .93625 .93625 0 -205.13 106.598)" x1="-58.316" x2="34.192" xlink:href="#b" y1="296" y2="296"/><clipPath id="j"><path d="M0 0h192v152H0z"/></clipPath><mask id="n"><g filter="url(#a)"><path fill-opacity=".664" d="M0 0h16v16H0z"/></g></mask><linearGradient id="o" gradientTransform="matrix(.8025 0 0 -.8025 -184.8 94.445)" x1="320" x2="320" xlink:href="#c" y1="93" y2="13"/><clipPath id="m"><path d="M0 0h192v152H0z"/></clipPath><path d="M8 1C4.133 1 1 4.133 1 8s3.133 7 7 7 7-3.133 7-7-3.133-7-7-7zm0 2a5 5 0 1 1 0 10A5 5 0 0 1 8 3zm0 0" fill="#241f31"/><path d="M8 4C5.79 4 4 5.79 4 8s1.79 4 4 4 4-1.79 4-4-1.79-4-4-4zM6.5 5a1.5 1.5 0 1 1 0 3 1.5 1.5 0 0 1 0-3zm0 0" fill="#241f31"/><g clip-path="url(#d)" mask="url(#e)" transform="translate(-168 -16)"><path d="M72 104c13.254 0 24-10.746 24-24S85.254 56 72 56 48 66.746 48 80s10.746 24 24 24zm0 0" fill="url(#f)"/></g><g clip-path="url(#g)" mask="url(#h)" transform="translate(-168 -16)"><path d="M105 80c0-18.227-14.773-33-33-33S39 61.773 39 80s14.773 33 33 33 33-14.773 33-33zm0 0" fill="url(#i)"/></g><g clip-path="url(#j)" mask="url(#k)" transform="translate(-168 -16)"><path d="M72 108c15.465 0 28-12.535 28-28S87.465 52 72 52 44 64.535 44 80s12.535 28 28 28zm0 0" fill="url(#l)"/></g><g clip-path="url(#m)" mask="url(#n)" transform="translate(-168 -16)"><path d="M112.125 80c0-22.16-17.965-40.125-40.125-40.125S31.875 57.84 31.875 80 49.84 120.125 72 120.125 112.125 102.16 112.125 80zm0 0" fill="url(#o)"/></g></svg>